<svg xmlns="http://www.w3.org/2000/svg" viewBox="-181.4 273 30 27.2" enable-background="new -181.4 273 30 27.2"><path fill="#666" d="M-180.2 273h10.6c.3 0 .5.2.5.5v7.7c0 .2.1.3.2.4l15.4 11.3s2.7 1.9 1.7 2.6c-.9.7-1.7 1.1-1.4 1.9.2.8 1.2 2.5.1 2.5-.9 0-5.3.1-6.8.2-.3 0-.5-.1-.6-.4-.2-.8-.7-1.9-1.7-2.2-1.4-.4-1.8-.4-2.1-1.1-.2-.5-1-.4-1.4-.3-.2 0-.4 0-.5-.2-.3-.3-.9-.9-1.4-.8-.8.2-2.9.1-3.3-1.2-.4-1.3-.3-1.4-1.3-2.4s-2.5-1.6-2.3-2.8c.1-1.2.5-1-.3-1.6s-1.3-.7-1.4-1.3c-.1-.7-.8-1.6-2.3-3-1.3-1.2-1.4-2.5-1.4-2.9 0-.1 0-.2-.1-.3-.1-.2-.4-.5-.9-1-.8-.7-.8-1.2-.3-2.3.4-.9.7-1.6.4-2.5 0-.5.2-.8.6-.8z"/></svg>