<svg xmlns="http://www.w3.org/2000/svg" viewBox="-184.2 281.5 35 11.2" enable-background="new -184.2 281.5 35 11.2"><path fill="#666" d="M-149.2 283c.1-.1.1-.3 0-.5-.1-.1-.2-.2-.4-.3h-.7c-.8 0-2.4.1-4 1.1-1.3.8-2.2 1.8-2.7 2.6-3-4.1-21.3-4.4-25.2-4.4-.5 0-1.3.1-1.7.6-.5.6-.2 1.5 0 2.5.2.8.4 1.6.4 2.5 0 .9-.2 1.8-.4 2.5-.3 1-.5 1.9 0 2.5.4.5 1.2.6 1.7.6 3.9 0 22.2-.3 25.2-4.4.5.8 1.3 1.8 2.7 2.6 1.6.9 3.2 1.1 4 1.1h.7c.2 0 .3-.1.4-.3.1-.1.1-.3 0-.5-.1-.1-1.4-2.5-3.2-3.6-.4-.2-.8-.4-1.2-.5.4-.1.9-.3 1.2-.5 1.8-1 3.1-3.4 3.2-3.6zm-33 8.8c-.7 0-.9-.1-.9-.2-.2-.2 0-.9.2-1.6.2-.8.5-1.7.5-2.8 0-1-.3-2-.5-2.8-.2-.7-.4-1.4-.2-1.6 0-.1.2-.2.9-.2 9.5 0 24.6 1.3 24.6 4.6 0 3.2-15.1 4.5-24.6 4.6zm28.4-7.6c.8-.4 1.5-.7 2.2-.8l-4 2.4c.4-.6 1-1.1 1.8-1.6zm0 5.9c-.8-.5-1.4-1-1.8-1.6l4 2.3c-.7 0-1.5-.3-2.2-.7zm.9-1.6c.6.3 1.1.8 1.5 1.3l-3.3-2c.6.2 1.2.4 1.8.7zm-1.9-2.1l3.3-2c-.4.5-.9 1-1.5 1.3-.5.4-1.1.6-1.8.7zm-21.8-1.9l-2.9 5.8c-.1.2-.3.3-.5.3-.1 0-.2 0-.3-.1-.3-.1-.4-.5-.3-.8l2.9-5.8c.1-.3.5-.4.8-.3.3.3.5.6.3.9zm2.9.3l-2.6 5.2c-.1.2-.3.3-.5.3-.1 0-.2 0-.3-.1-.3-.1-.4-.5-.3-.8l2.6-5.2c.1-.3.5-.4.8-.3.3.3.4.6.3.9zm2.9.3l-2.3 4.6c-.1.2-.3.3-.5.3-.1 0-.2 0-.3-.1-.3-.1-.4-.5-.3-.8l2.3-4.6c.1-.3.5-.4.8-.3.3.3.4.6.3.9zm2.9.3l-2 4.1c-.1.2-.3.3-.5.3-.1 0-.2 0-.3-.1-.3-.1-.4-.5-.3-.8l2-4.1c.1-.3.5-.4.8-.3s.4.6.3.9zm2.9.3l-1.7 3.5c-.1.2-.3.3-.5.3-.1 0-.2 0-.3-.1-.3-.1-.4-.5-.3-.8l1.7-3.5c.1-.3.5-.4.8-.3.3.2.4.6.3.9zm2.8.3l-1.5 2.9c-.1.2-.3.3-.5.3-.1 0-.2 0-.3-.1-.3-.1-.4-.5-.3-.8l1.5-2.9c.1-.3.5-.4.8-.3.4.2.5.6.3.9z"/></svg>