<svg xmlns="http://www.w3.org/2000/svg" viewBox="-181.7 277.8 30 19.4" enable-background="new -181.7 277.8 30 19.4"><path fill="#666" d="M-152.165 289.854l.452-.452v.452h-.452zm.452 6.304h-29.14v-5.918h29.154l-.013 5.918zm-28.688-12.236l-.466.452v-.452h.466zm28.688.825v.638l-4.456 4.469h-.638l5.094-5.107zm0-.771v.638l-5.227 5.227h-.638l5.865-5.865zm-.718-.053h.638l-5.918 5.918h-.638l5.918-5.918zm-.771 0h.638l-5.918 5.918h-.638l5.918-5.918zm-.771 0h.638l-5.918 5.918h-.638l5.918-5.918zm-.771 0h.638l-5.918 5.918h-.638l5.918-5.918zm-.771 0h.638l-5.918 5.918h-.638l5.918-5.918zm-.785 0h.638l-5.918 5.918h-.638l5.918-5.918zm-.771 0h.638l-5.918 5.918h-.638l5.918-5.918zm-.771 0h.638l-5.918 5.918h-.638l5.918-5.918zm-.771 0h.638l-5.932 5.918h-.638l5.932-5.918zm-.771 0h.638l-5.918 5.918h-.638l5.918-5.918zm-.785 0h.638l-5.918 5.918h-.638l5.918-5.918zm-.758 0h.638l-5.932 5.918h-.638l5.932-5.918zm-.785 0h.638l-5.932 5.918h-.638l5.932-5.918zm-.771 0h.638l-5.918 5.918h-.638l5.918-5.918zm-.785 0h.638l-5.918 5.918h-.638l5.918-5.918zm-.771 0h.638l-5.918 5.918h-.638l5.918-5.918zm-.771 0h.638l-5.918 5.918h-.638l5.918-5.918zm-.771 0h.638l-5.918 5.918h-.638l5.918-5.918zm-.771 0h.638l-5.918 5.918h-.638l5.918-5.918zm-.771 0h.638l-5.918 5.918h-.638l5.918-5.918zm-.771 0h.638l-5.918 5.918h-.638l5.918-5.918zm-.771 0h.638l-5.918 5.918h-.638l5.918-5.918zm-.785 0h.638l-5.918 5.918h-.638l5.918-5.918zm-.771 0h.638l-5.918 5.918h-.638l5.918-5.918zm-.771 0h.638l-5.918 5.918h-.638l5.918-5.918zm-.771 0h.638l-5.918 5.918h-.638l5.918-5.918zm-.771 0h.638l-5.918 5.918h-.638l5.918-5.918zm-.771 0h.638l-5.918 5.918h-.638l5.918-5.918zm-.771 0h.638l-5.918 5.918h-.638l5.918-5.918zm-.771 0h.638l-5.918 5.918h-.638l5.918-5.918zm-6.012 4.469l4.456-4.456h.638l-5.094 5.094v-.638zm4.322-4.469l-4.322 4.322v-.638l3.684-3.684h.638zm-.771 0l-3.551 3.551v-.638l2.913-2.913h.638zm-.771 0l-2.78 2.78v-.638l2.141-2.141h.638zm-.785 0l-1.995 2.008v-.638l1.37-1.37h.625zm-1.995.599l.599-.599h.638l-1.224 1.224c-.013.013-.013-.625-.013-.625zm0 4.642l5.227-5.227h.638l-5.865 5.865v-.638zm29.154-3.006l-3.684 3.684h-.638l4.322-4.322v.638zm0 1.689v.638l-1.37 1.37h-.638c.013 0 2.008-2.008 2.008-2.008zm0-.771v.638l-2.141 2.141h-.638c.013 0 2.78-2.78 2.78-2.78zm0-.146l-2.913 2.913h-.638l3.551-3.551v.638zm-1.224 2.926l1.237-1.237v.638l-.599.599h-.638zm1.423-12.622h-29.539c-.106 0-.2.093-.2.2v18.913c0 .106.093.2.2.2h29.539c.106 0 .2-.093.2-.2v-18.913c0-.106-.093-.2-.2-.2"/></svg>