<?xml version="1.0" encoding="utf-8"?>
<!-- Generator: Adobe Illustrator 18.1.1, SVG Export Plug-In . SVG Version: 6.00 Build 0)  -->
<svg version="1.1" id="Layer_1" xmlns="http://www.w3.org/2000/svg" xmlns:xlink="http://www.w3.org/1999/xlink" x="0px" y="0px"
	 viewBox="60.4 758.7 30 22.9" enable-background="new 60.4 758.7 30 22.9" xml:space="preserve">
<path fill="#666666" d="M90.2,760.2c0-0.9-0.5-1.5-1.2-1.5H61.6c-0.7,0-1.2,0.7-1.2,1.5c0,0.9,0.5,1.5,1.2,1.5h0.6
	c-0.2,0.7,1.9,7.2,2.7,8h-3.3c-0.7,0-1.2,0.7-1.2,1.5c0,0.9,0.5,1.5,1.2,1.5h0.6c-0.2,0.7,2.3,8.6,4.5,8.9h17.5
	c2.2-0.4,4.6-8.3,4.5-8.9h0.6c0.7,0,1.2-0.7,1.2-1.5c0-0.9-0.5-1.5-1.2-1.5H86c0.9-0.9,2.9-7.4,2.7-8h0.6
	C89.6,761.8,90.2,761.1,90.2,760.2L90.2,760.2z M64.4,765.8c0.2,0.1,0.4,0.2,0.6,0.4l0.6,0.4c0.6,0.4,1.3,0.9,2,1.2
	c0,0,0.1,0.1,0.2,0.1c0.5,0.3,1,0.4,1.5,0.6c0.3,0.1,0.5,0.2,0.8,0.2c0.4,0.1,1.1,0.3,1.1,0.4c0,0,0,0.1-0.1,0.5h-4.2
	C66,769.5,65.1,767.7,64.4,765.8L64.4,765.8z M83.6,768.6l0.3,0.1l0.8,0.2c-0.3,0.4-0.6,0.7-0.8,0.7h-0.3
	C83.7,769.3,83.7,768.9,83.6,768.6L83.6,768.6z M84.2,767.6c-0.6-0.1-1.3-0.3-2.1-0.7c-0.7-0.3-1.4-0.7-2.1-1.1
	c-0.6-0.4-1.2-0.7-1.7-0.9c0-0.1,0-0.2,0.1-0.3c0-0.1,0.1-0.1,0.1-0.1c0.4,0,1.2,0.5,2,0.9c0.6,0.3,1.3,0.7,2,1.1l2,0.7
	c0.4,0.1,1,0.3,1,0.4l-0.2,0.5C85,767.8,84.6,767.7,84.2,767.6z M80.6,768.9C80.6,768.9,80.6,768.8,80.6,768.9
	c-0.2-0.3-0.4-0.5-0.7-0.7c0.6,0.2,1.1,0.3,1.5,0.4c0.4,0.1,1.1,0.3,1.2,0.4c0,0,0,0.1-0.1,0.4v0.1h-1.8
	C80.7,769.4,80.7,769.2,80.6,768.9L80.6,768.9z M79.1,766.6l0.3,0.2c0.2,0.1,0.4,0.3,0.7,0.4l-0.5-0.2h-0.1c-0.7-0.3-1.4-0.7-2-1.1
	h-0.1C77.9,765.8,78.5,766.2,79.1,766.6L79.1,766.6z M78.9,767.9h-0.2c-0.6-0.2-1.2-0.4-2-0.8h-0.1l-1-0.6c-0.3-0.2-0.6-0.4-1-0.7
	h0.1c0.2,0,0.6,0.1,1,0.3l1,0.6c0,0,0.1,0,0.1,0.1C77.5,767.1,78.2,767.5,78.9,767.9L78.9,767.9z M75.8,767.8
	c0.1,0.1,0.2,0.1,0.4,0.2c0.4,0.2,0.8,0.4,1.1,0.5c0.4,0.2,0.8,0.3,1.1,0.4c0.4,0.1,1.1,0.3,1.1,0.5c0,0,0,0.1-0.1,0.3h-2.7v-0.4
	c-0.1-0.4-0.4-0.7-0.8-1c-0.2-0.1-0.5-0.3-0.8-0.4c-0.3-0.1-0.5-0.3-0.8-0.5c-0.3-0.2-0.7-0.4-1-0.7l-0.1-0.1
	c-0.4-0.3-0.9-0.7-1.2-1.1h0.1c0.3,0,0.8,0.3,1.3,0.6c0.2,0.2,0.5,0.3,0.8,0.5c0.1,0.1,0.2,0.1,0.2,0.2
	C74.8,767.1,75.3,767.5,75.8,767.8z M72.7,767.6c0.3,0.2,0.5,0.4,0.8,0.5c0.5,0.3,0.9,0.5,1.3,0.7l0.6,0.3c0.2,0.1,0.4,0.3,0.4,0.3
	v0.2h-1.9c0.1-0.2,0.1-0.4,0.1-0.6c0-0.1,0-0.2-0.1-0.3c-0.1-0.2-0.2-0.4-0.3-0.5c-0.3-0.3-0.8-0.5-1.4-0.7l-0.6-0.2
	c-0.4-0.1-0.7-0.3-1.1-0.6c-0.1,0-0.2-0.1-0.3-0.2c-0.6-0.4-1.2-0.9-1.8-1.4c0.1-0.2,0.2-0.4,0.3-0.5c0.2-0.2,0.3-0.2,0.3-0.2
	c0.4,0,1,0.6,1.6,1.2l0.2,0.2l0.7,0.7L72.7,767.6z M72.1,768.7C72.1,768.6,72.2,768.7,72.1,768.7c0.4,0.1,0.7,0.3,0.7,0.4
	c0,0,0,0.1-0.1,0.3l-0.1,0.2l-0.1,0.1h-0.4C72.2,769.3,72.2,769,72.1,768.7z M69.6,767.4c-0.3-0.1-0.8-0.2-1.2-0.4l-0.2-0.1l-1-0.6
	c-0.3-0.2-0.7-0.4-1-0.7c-0.3-0.2-0.6-0.4-1-0.6c0,0,0-0.1,0.1-0.1c0.2-0.3,0.3-0.3,0.4-0.3c0.3,0,0.9,0.4,1.5,0.9
	c0.1,0.1,0.3,0.2,0.4,0.4c0.2,0.2,0.4,0.4,0.7,0.5C68.7,766.8,69.1,767.1,69.6,767.4L69.6,767.4z M86.6,776
	c-0.3,0.2-0.6,0.4-0.8,0.7c-0.6-0.3-1.2-0.5-1.8-0.5c-0.2,0-0.5,0-0.7,0.1c-0.2,0-0.4,0.1-0.6,0.2c-0.2-0.4-0.5-0.7-0.9-0.8
	c-0.2-0.1-0.5-0.2-0.8-0.2h-0.4c-0.7-0.5-1.5-0.8-2.5-0.8c-0.9,0-1.9,0.2-2.8,0.7c-0.2,0.1-0.4,0.2-0.6,0.4
	c-0.2-0.1-0.5-0.2-0.8-0.2c-0.7,0-1.3,0.3-1.8,0.9c-0.4-0.1-0.9-0.2-1.3-0.2c-0.5,0-1,0.1-1.4,0.2c-0.5-0.5-1.1-0.8-1.8-0.9
	c-1-0.1-2,0.2-2.8,1c-0.2-0.3-0.5-0.6-0.8-0.7c-0.1-0.1-0.3-0.1-0.4-0.1c-0.4-1.4-0.7-2.5-0.6-2.6c0,0,0.1-0.1,0.7-0.1h22.7
	c0.6,0,0.7,0.1,0.7,0.1C87.5,773.2,87.2,774.5,86.6,776L86.6,776z M89,770.9c0,0,0.1,0.2,0.1,0.4c0,0.2-0.1,0.4-0.1,0.4H61.6
	c0,0-0.1-0.2-0.1-0.4c0-0.2,0.1-0.4,0.1-0.4H89z M86,766.5c-0.3-0.2-0.7-0.3-1.2-0.4c-0.5-0.1-1.2-0.3-1.9-0.7
	c-0.7-0.3-1.3-0.7-1.9-1c-1-0.6-1.8-1.1-2.5-1.1c-0.5,0-0.9,0.3-1.1,0.8c-0.1,0.2-0.1,0.4-0.1,0.5c-0.3,0-0.6,0.1-0.9,0.4
	c-0.5-0.3-1-0.5-1.4-0.5c-0.3,0-0.7,0.1-1,0.4c-0.6-0.4-1.2-0.7-1.8-0.7c-0.3,0-0.6,0.1-0.9,0.3c-0.8-0.8-1.5-1.4-2.3-1.4
	c-0.5,0-0.9,0.2-1.2,0.7c-0.1,0.1-0.2,0.3-0.3,0.5c-0.7-0.5-1.3-0.9-1.9-0.9c-0.4,0-0.9,0.1-1.3,0.8c0,0.1-0.1,0.2-0.1,0.2l-0.3-0.1
	c-0.5-1.3-0.7-2.4-0.7-2.5c0,0,0.1-0.1,0.7-0.1h22.7c0.6,0,0.7,0.1,0.7,0.1C87.5,762.2,86.9,764.5,86,766.5L86,766.5z M61.6,760.7
	c0,0-0.1-0.2-0.1-0.4s0.1-0.4,0.1-0.4H89c0,0,0.1,0.2,0.1,0.4s-0.1,0.4-0.1,0.4H61.6z"/>
</svg>
