<?xml version="1.0" encoding="utf-8"?>
<!-- Generator: Adobe Illustrator 18.1.1, SVG Export Plug-In . SVG Version: 6.00 Build 0)  -->
<svg version="1.1" id="Layer_1" xmlns="http://www.w3.org/2000/svg" xmlns:xlink="http://www.w3.org/1999/xlink" x="0px" y="0px"
	 viewBox="33.8 743.5 18.7 40" enable-background="new 33.8 743.5 18.7 40" xml:space="preserve">
<g>
	<circle fill="#666666" cx="39.1" cy="758.2" r="2.2"/>
	<path fill="#666666" d="M50.5,759.3c0-11-1.7-15.8-3.7-15.8c-2.1,0-3.7,4.8-3.7,15.8v1.7h-6.5c-1.7,0-2.7,1.4-2.7,3.1v7.3
		c0,1.4,1.9,1.4,1.9,0v-7.1h0.6v18c0,0.7,0.6,1.3,1.3,1.3s1.3-0.6,1.3-1.3V772h0.6v10.2c0,0.7,0.6,1.3,1.3,1.3
		c0.7,0,1.3-0.6,1.3-1.3v-19h1v0.5c0,11,1.7,19.9,3.7,19.9c2.1,0,3.7-9,3.7-19.9V759.3L50.5,759.3z M51,763.2h0.3
		c1.7,0,1.7-2.1,0-2.1H51V763.2z"/>
</g>
</svg>
